<svg width="32" height="32" viewBox="0 0 32 32" fill="none" xmlns="http://www.w3.org/2000/svg">
<rect width="32" height="32" fill="white"/>
<path d="M3 29.1315V28.2319H15.0544C16.5417 28.2319 17.8012 28.052 18.8327 27.6921C19.8642 27.3323 20.7038 26.6966 21.3515 25.785C21.9992 24.8494 22.467 23.554 22.7549 21.8988C23.0667 20.2436 23.2227 18.1325 23.2227 15.5657C23.2227 12.9989 23.0667 10.8879 22.7549 9.23266C22.467 7.57742 21.9872 6.29402 21.3155 5.38244C20.6678 4.44687 19.8282 3.79917 18.7967 3.43933C17.7652 3.0795 16.5058 2.89958 15.0184 2.89958H3V2H16.1699C17.9691 2 19.6363 2.37183 21.1716 3.11548C22.7309 3.83515 24.0983 4.83069 25.2737 6.1021C26.4492 7.37352 27.3607 8.82485 28.0084 10.4561C28.6561 12.0873 28.98 13.7906 28.98 15.5657C28.98 17.3409 28.6442 19.0441 27.9725 20.6754C27.3248 22.3066 26.4132 23.7579 25.2377 25.0294C24.0863 26.3008 22.7309 27.3083 21.1716 28.052C19.6123 28.7716 17.9331 29.1315 16.1339 29.1315H3ZM6.95817 28.5917V2H11.7799V28.5917H6.95817Z" fill="#BF8F3C"/>
</svg>
