<svg width="42" height="13" viewBox="0 0 42 13" fill="none" xmlns="http://www.w3.org/2000/svg">
    <path
        d="M0 9.048V8.748H4.02C4.516 8.748 4.936 8.688 5.28 8.568C5.624 8.448 5.904 8.236 6.12 7.932C6.336 7.62 6.492 7.188 6.588 6.636C6.692 6.084 6.744 5.38 6.744 4.524C6.744 3.668 6.692 2.964 6.588 2.412C6.492 1.86 6.332 1.432 6.108 1.128C5.892 0.816 5.612 0.599999 5.268 0.48C4.924 0.36 4.504 0.3 4.008 0.3H0V0H4.392C4.992 0 5.548 0.124 6.06 0.372C6.58 0.612 7.036 0.944 7.428 1.368C7.82 1.792 8.124 2.276 8.34 2.82C8.556 3.364 8.664 3.932 8.664 4.524C8.664 5.116 8.552 5.684 8.328 6.228C8.112 6.772 7.808 7.256 7.416 7.68C7.032 8.104 6.58 8.44 6.06 8.688C5.54 8.928 4.98 9.048 4.38 9.048H0ZM1.32 8.868V0H2.928V8.868H1.32Z"
        fill="#BF8F3C" />
    <path
        d="M10.5641 8.868V3.948H11.8841V8.868H10.5641ZM9.61613 9.048V8.748H12.8441V9.048H9.61613ZM9.49613 4.056V3.756H11.8841V4.056H9.49613ZM11.2001 1.872C10.9841 1.872 10.7961 1.796 10.6361 1.644C10.4841 1.484 10.4081 1.296 10.4081 1.08C10.4081 0.864 10.4841 0.68 10.6361 0.528C10.7961 0.368 10.9841 0.288 11.2001 0.288C11.4161 0.288 11.6001 0.368 11.7521 0.528C11.9121 0.68 11.9921 0.864 11.9921 1.08C11.9921 1.296 11.9121 1.484 11.7521 1.644C11.6001 1.796 11.4161 1.872 11.2001 1.872Z"
        fill="#BF8F3C" />
    <path
        d="M17.9331 8.868V4.812C17.9331 4.212 17.6931 3.912 17.2131 3.912C16.9491 3.912 16.7051 4.02 16.4811 4.236C16.2651 4.452 16.0891 4.748 15.9531 5.124C15.8251 5.492 15.7611 5.912 15.7611 6.384L15.5211 4.644H15.8091C15.9771 4.316 16.2051 4.044 16.4931 3.828C16.7891 3.612 17.1691 3.504 17.6331 3.504C18.1051 3.504 18.4931 3.632 18.7971 3.888C19.1011 4.136 19.2531 4.444 19.2531 4.812V8.868H17.9331ZM13.4931 9.048V8.748H16.5411V9.048H13.4931ZM14.4411 8.868V3.84H15.7611V8.868H14.4411ZM17.0211 9.048V8.748H20.0691V9.048H17.0211ZM13.4931 3.948V3.648H15.7611V3.948H13.4931Z"
        fill="#BF8F3C" />
    <path
        d="M23.5935 9.192C23.2095 9.192 22.8455 9.116 22.5015 8.964C22.1655 8.804 21.8695 8.592 21.6135 8.328C21.3575 8.056 21.1575 7.752 21.0135 7.416C20.8695 7.072 20.7975 6.716 20.7975 6.348C20.7975 5.86 20.9095 5.4 21.1335 4.968C21.3655 4.536 21.6855 4.184 22.0935 3.912C22.5015 3.64 22.9815 3.504 23.5335 3.504C23.9655 3.504 24.3535 3.604 24.6975 3.804C25.0495 3.996 25.3255 4.268 25.5255 4.62C25.7255 4.972 25.8255 5.376 25.8255 5.832V5.904H21.9015V5.604H24.4335V4.92C24.4335 4.192 24.1135 3.828 23.4735 3.828C23.2095 3.828 22.9935 3.908 22.8255 4.068C22.6655 4.22 22.5455 4.48 22.4655 4.848C22.3935 5.216 22.3575 5.716 22.3575 6.348C22.3575 6.996 22.3975 7.5 22.4775 7.86C22.5575 8.22 22.6895 8.472 22.8735 8.616C23.0655 8.76 23.3175 8.832 23.6295 8.832C24.0535 8.832 24.4215 8.724 24.7335 8.508C25.0455 8.292 25.3095 7.916 25.5255 7.38H25.8615C25.7015 7.94 25.4175 8.384 25.0095 8.712C24.6095 9.032 24.1375 9.192 23.5935 9.192Z"
        fill="#BF8F3C" />
    <path
        d="M31.0081 9.192C30.3681 9.192 29.8081 9.104 29.3281 8.928C28.8561 8.744 28.4881 8.468 28.2241 8.1C27.9681 7.732 27.8401 7.268 27.8401 6.708V0.3H26.4361V0H30.5881V0.3H29.4481V6.696C29.4481 7.44 29.6201 7.972 29.9641 8.292C30.3081 8.612 30.7801 8.772 31.3801 8.772C32.0201 8.772 32.5281 8.6 32.9041 8.256C33.2801 7.912 33.4681 7.392 33.4681 6.696V0.3H32.2081V0H35.1241V0.3H33.8641V6.696C33.8641 7.552 33.6241 8.184 33.1441 8.592C32.6721 8.992 31.9601 9.192 31.0081 9.192Z"
        fill="#BF8F3C" />
    <path
        d="M39.0443 9.192C38.6763 9.192 38.3523 9.112 38.0723 8.952C37.7923 8.792 37.5842 8.592 37.4482 8.352H37.1603L37.4002 6.528C37.4002 7.304 37.5442 7.876 37.8322 8.244C38.1202 8.604 38.4803 8.784 38.9123 8.784C39.1363 8.784 39.3163 8.72 39.4523 8.592C39.5883 8.464 39.6842 8.224 39.7402 7.872C39.8042 7.52 39.8363 7.016 39.8363 6.36C39.8363 5.696 39.8042 5.188 39.7402 4.836C39.6762 4.484 39.5763 4.244 39.4403 4.116C39.3043 3.98 39.1242 3.912 38.9002 3.912C38.4682 3.912 38.1083 4.092 37.8203 4.452C37.5403 4.812 37.4002 5.384 37.4002 6.168L37.1603 4.344H37.4482C37.5842 4.104 37.7923 3.904 38.0723 3.744C38.3603 3.584 38.6883 3.504 39.0563 3.504C39.4563 3.504 39.8322 3.624 40.1842 3.864C40.5363 4.096 40.8203 4.428 41.0363 4.86C41.2603 5.284 41.3722 5.78 41.3722 6.348C41.3722 6.916 41.2603 7.416 41.0363 7.848C40.8203 8.272 40.5322 8.604 40.1722 8.844C39.8202 9.076 39.4443 9.192 39.0443 9.192ZM35.2523 12.816V12.516H38.6003V12.816H35.2523ZM36.0802 12.636V3.84H37.4002V12.636H36.0802ZM35.1323 3.948V3.648H37.4002V3.948H35.1323Z"
        fill="#BF8F3C" />
</svg>
